<?xml version="1.0" standalone="no"?>
<!DOCTYPE svg PUBLIC "-//W3C//DTD SVG 20010904//EN"
 "http://www.w3.org/TR/2001/REC-SVG-20010904/DTD/svg10.dtd">
<svg version="1.0" xmlns="http://www.w3.org/2000/svg"
 width="200.000000pt" height="200.000000pt" viewBox="0 0 200.000000 200.000000"
 preserveAspectRatio="xMidYMid meet">
<metadata>
Created by potrace 1.11, written by Peter Selinger 2001-2013
</metadata>
<g transform="translate(0.000000,200.000000) scale(0.100000,-0.100000)"
fill="#000000" stroke="none">
<path d="M0 1000 l0 -1000 1000 0 1000 0 0 1000 0 1000 -1000 0 -1000 0 0
-1000z m969 489 c30 -11 61 -52 61 -82 0 -8 -11 -31 -25 -52 -24 -34 -25 -39
-10 -55 56 -61 73 -231 34 -335 -27 -74 -112 -165 -187 -202 -51 -25 -68 -28
-157 -28 -89 0 -106 3 -157 28 -79 39 -143 104 -181 184 -27 58 -31 78 -31
148 1 107 28 176 100 254 79 85 151 116 269 115 60 0 102 -6 127 -16 35 -16
37 -16 60 9 12 14 32 29 43 33 11 5 20 9 21 9 1 1 15 -4 33 -10z m544 -220
c102 -51 160 -142 160 -254 1 -118 -51 -203 -155 -254 -188 -94 -407 38 -408
245 0 135 67 231 193 276 64 23 148 18 210 -13z m-929 -624 c95 -31 101 -31
210 1 88 26 88 26 115 7 18 -14 27 -31 29 -57 3 -32 -2 -43 -35 -75 -48 -48
-119 -71 -219 -71 -95 0 -168 24 -216 72 -52 52 -49 116 5 138 30 12 26 13
111 -15z"/>
<path d="M589 1277 c-130 -69 -141 -256 -20 -342 38 -27 51 -30 115 -30 60 0
78 4 108 24 75 52 106 135 83 223 -31 122 -174 184 -286 125z"/>
<path d="M1346 1160 c-95 -29 -136 -156 -78 -237 45 -64 149 -81 211 -36 85
64 83 199 -4 253 -38 23 -92 32 -129 20z"/>
</g>
</svg>
